# xmcd CD database file
#
# Track frame offsets:
#	150
#	13770
#	29038
#	41639
#	56141
#	68476
#	81805
#	93476
#	102961
#	115696
#	129507
#	141887
#	156045
#	170913
#
# Disc length: 2498 seconds
#
# Revision: 1
# Processed by: cddbd v1.5.1PL2 Copyright (c) Steve Scherf et al.
# Submitted via: CDex 1.51
#
DISCID=bf09c00e
DTITLE=Ann Pascoe - On The Menu
DYEAR=2005
DGENRE=Country
TTITLE0=On The Menu
TTITLE1=I Believe In Me
TTITLE2=How Much Is Love Worth
TTITLE3=You Just Don't Get It
TTITLE4=I Need Lovin' In My Life
TTITLE5=Treat Me Like A Lady
TTITLE6=A Faster Train
TTITLE7=Cowboy Cute And Cowgirl Crazy
TTITLE8=Toodlee Oo
TTITLE9=Making Love To You
TTITLE10=The Pumpkin In Your Drive
TTITLE11=Our Movie Is Over
TTITLE12=Jealous River
TTITLE13=This Saddle
EXTD=YEAR: 2005
EXTT0=
EXTT1=
EXTT2=
EXTT3=
EXTT4=
EXTT5=
EXTT6=
EXTT7=
EXTT8=
EXTT9=
EXTT10=
EXTT11=
EXTT12=
EXTT13=
PLAYORDER=
